<svg id="레이어_1" data-name="레이어 1" xmlns="http://www.w3.org/2000/svg" viewBox="0 0 60 30"><path d="M12.66,22.76H8V1.5h4.67Z"/><path d="M20.55,7.78V23.27A5.43,5.43,0,0,1,19,27.37a5.84,5.84,0,0,1-4.21,1.44,9.82,9.82,0,0,1-2.2-.24V25a9.65,9.65,0,0,0,1.32.13,1.71,1.71,0,0,0,1.94-1.93V7.78Zm-5-3.86a2.07,2.07,0,0,1,.72-1.63,2.69,2.69,0,0,1,1.87-.64A2.71,2.71,0,0,1,20,2.29a2.07,2.07,0,0,1,.72,1.63A2.1,2.1,0,0,1,20,5.56a2.75,2.75,0,0,1-1.87.63,2.73,2.73,0,0,1-1.87-.63A2.1,2.1,0,0,1,15.53,3.92Z"/><path d="M27.75,9.39a4.66,4.66,0,0,1,3.82-1.88A4.69,4.69,0,0,1,35.31,9a6.63,6.63,0,0,1,1.28,4.34v9.45H31.92V13.42a2.63,2.63,0,0,0-.49-1.75,2.06,2.06,0,0,0-1.65-.57,2.24,2.24,0,0,0-2,.92V22.76H23.09V1.5h4.66Z"/><path d="M25,28.45a1.12,1.12,0,0,1-.1-.31,1,1,0,0,1-.84.38,1.24,1.24,0,0,1-.84-.3,1,1,0,0,1-.35-.75,1,1,0,0,1,.42-.86,2.1,2.1,0,0,1,1.22-.29h.34v-.19q0-.48-.42-.48a.33.33,0,0,0-.38.38H23a1,1,0,0,1,.43-.82,1.82,1.82,0,0,1,1.1-.32,1.55,1.55,0,0,1,1.05.33,1.15,1.15,0,0,1,.4.89v1.55a1.61,1.61,0,0,0,.15.74v.05Zm-.68-.71a.71.71,0,0,0,.34-.08.59.59,0,0,0,.19-.2V26.9h-.32q-.57,0-.57.51a.33.33,0,0,0,.1.24A.39.39,0,0,0,24.32,27.74Z"/><path d="M28.66,25.94l-.36,0c-.34,0-.56.1-.66.32v2.21H26.55V25h1l0,.45a.82.82,0,0,1,.76-.52,1.37,1.37,0,0,1,.31,0Z"/><path d="M30.47,27.68a.45.45,0,0,0,.35-.13.47.47,0,0,0,.12-.34h1a1.19,1.19,0,0,1-.41.94,1.55,1.55,0,0,1-1.06.37,1.54,1.54,0,0,1-1.2-.48,1.9,1.9,0,0,1-.44-1.33v0a2.12,2.12,0,0,1,.2-.93,1.38,1.38,0,0,1,.56-.63,1.73,1.73,0,0,1,.87-.22,1.5,1.5,0,0,1,1.08.38,1.33,1.33,0,0,1,.4,1h-1a.59.59,0,0,0-.13-.42.45.45,0,0,0-.35-.15c-.29,0-.45.18-.5.54,0,.12,0,.27,0,.47a1.55,1.55,0,0,0,.12.73A.45.45,0,0,0,30.47,27.68Z"/><path d="M33.49,25.33a1.09,1.09,0,0,1,.89-.44,1.08,1.08,0,0,1,.87.35,1.47,1.47,0,0,1,.3,1v2.2H34.46V26.27a.67.67,0,0,0-.11-.41.54.54,0,0,0-.39-.13.5.5,0,0,0-.47.22v2.5H32.4v-5h1.09Z"/><path d="M36.15,24.06a.46.46,0,0,1,.17-.38.61.61,0,0,1,.43-.15.63.63,0,0,1,.44.15.49.49,0,0,1,.17.38.5.5,0,0,1-.17.38.63.63,0,0,1-.44.15.61.61,0,0,1-.43-.15A.47.47,0,0,1,36.15,24.06Zm1.15,4.39H36.21V25H37.3Z"/><path d="M39.24,24.09V25h.58v.75h-.58v1.6a.47.47,0,0,0,.07.28.39.39,0,0,0,.28.07,1.06,1.06,0,0,0,.27,0v.78a1.77,1.77,0,0,1-.61.1,1.14,1.14,0,0,1-.83-.27,1.06,1.06,0,0,1-.27-.8V25.71h-.44V25h.44v-.87Z"/><path d="M41.94,28.52A1.82,1.82,0,0,1,40.63,28a1.66,1.66,0,0,1-.49-1.25V26.7a2.07,2.07,0,0,1,.2-.95,1.45,1.45,0,0,1,.57-.63,1.78,1.78,0,0,1,.91-.23,1.52,1.52,0,0,1,1.16.46,1.76,1.76,0,0,1,.43,1.27v.43H41.24a.81.81,0,0,0,.26.46.77.77,0,0,0,.51.17,1,1,0,0,0,.81-.36l.49.58a1.3,1.3,0,0,1-.57.45A2,2,0,0,1,41.94,28.52Zm-.13-2.79c-.32,0-.51.21-.57.64h1.1v-.09a.51.51,0,0,0-.13-.4A.51.51,0,0,0,41.81,25.73Z"/><path d="M45.32,27.68a.43.43,0,0,0,.48-.47h1a1.23,1.23,0,0,1-.41.94,1.55,1.55,0,0,1-1.06.37,1.54,1.54,0,0,1-1.2-.48,1.9,1.9,0,0,1-.44-1.33v0a2.12,2.12,0,0,1,.19-.93,1.4,1.4,0,0,1,.57-.63,1.7,1.7,0,0,1,.87-.22,1.53,1.53,0,0,1,1.08.38,1.33,1.33,0,0,1,.4,1h-1a.59.59,0,0,0-.13-.42.46.46,0,0,0-.36-.15c-.28,0-.44.18-.49.54a3.11,3.11,0,0,0,0,.47,1.55,1.55,0,0,0,.12.73A.44.44,0,0,0,45.32,27.68Z"/><path d="M48.55,24.09V25h.57v.75h-.57v1.6a.41.41,0,0,0,.07.28.39.39,0,0,0,.28.07,1.06,1.06,0,0,0,.27,0v.78a1.77,1.77,0,0,1-.61.1,1.12,1.12,0,0,1-.83-.27,1.06,1.06,0,0,1-.27-.8V25.71H47V25h.44v-.87Z"/><path d="M51.38,27.47a.25.25,0,0,0-.14-.22,2,2,0,0,0-.56-.18,2.9,2.9,0,0,1-.67-.23,1.09,1.09,0,0,1-.4-.36.87.87,0,0,1-.14-.48.94.94,0,0,1,.4-.79,1.61,1.61,0,0,1,1-.32,1.81,1.81,0,0,1,1.11.32,1,1,0,0,1,.42.82H51.35q0-.42-.45-.42a.39.39,0,0,0-.28.1.28.28,0,0,0,0,.47,1.45,1.45,0,0,0,.46.15,3.25,3.25,0,0,1,.54.14,1,1,0,0,1,.79,1,.92.92,0,0,1-.42.78,1.88,1.88,0,0,1-1.1.3,2,2,0,0,1-.8-.16,1.36,1.36,0,0,1-.55-.44,1,1,0,0,1-.2-.59h1a.41.41,0,0,0,.16.36.67.67,0,0,0,.39.11.55.55,0,0,0,.34-.09A.3.3,0,0,0,51.38,27.47Z"/></svg>